<svg id="visual" viewBox="0 0 900 600" width="900" height="600" xmlns="http://www.w3.org/2000/svg" xmlns:xlink="http://www.w3.org/1999/xlink" version="1.1"><rect x="0" y="0" width="900" height="600" fill="#001220"></rect><path d="M0 356L21.5 356.3C43 356.7 86 357.3 128.8 370.2C171.7 383 214.3 408 257.2 417.3C300 426.7 343 420.3 385.8 414.7C428.7 409 471.3 404 514.2 404.8C557 405.7 600 412.3 642.8 412.3C685.7 412.3 728.3 405.7 771.2 395.7C814 385.7 857 372.3 878.5 365.7L900 359L900 601L878.5 601C857 601 814 601 771.2 601C728.3 601 685.7 601 642.8 601C600 601 557 601 514.2 601C471.3 601 428.7 601 385.8 601C343 601 300 601 257.2 601C214.3 601 171.7 601 128.8 601C86 601 43 601 21.5 601L0 601Z" fill="#fa7268"></path><path d="M0 452L21.5 453.2C43 454.3 86 456.7 128.8 453C171.7 449.3 214.3 439.7 257.2 432.8C300 426 343 422 385.8 421.2C428.7 420.3 471.3 422.7 514.2 427C557 431.3 600 437.7 642.8 441.5C685.7 445.3 728.3 446.7 771.2 442C814 437.3 857 426.7 878.5 421.3L900 416L900 601L878.5 601C857 601 814 601 771.2 601C728.3 601 685.7 601 642.8 601C600 601 557 601 514.2 601C471.3 601 428.7 601 385.8 601C343 601 300 601 257.2 601C214.3 601 171.7 601 128.8 601C86 601 43 601 21.5 601L0 601Z" fill="#ef5f67"></path><path d="M0 437L21.5 448.2C43 459.3 86 481.7 128.8 485.8C171.7 490 214.3 476 257.2 465.8C300 455.7 343 449.3 385.8 446C428.7 442.7 471.3 442.3 514.2 442.8C557 443.3 600 444.7 642.8 449.5C685.7 454.3 728.3 462.7 771.2 467.8C814 473 857 475 878.5 476L900 477L900 601L878.5 601C857 601 814 601 771.2 601C728.3 601 685.7 601 642.8 601C600 601 557 601 514.2 601C471.3 601 428.7 601 385.8 601C343 601 300 601 257.2 601C214.3 601 171.7 601 128.8 601C86 601 43 601 21.5 601L0 601Z" fill="#e34c67"></path><path d="M0 500L21.5 500.7C43 501.3 86 502.7 128.8 502.8C171.7 503 214.3 502 257.2 501.8C300 501.7 343 502.3 385.8 508.2C428.7 514 471.3 525 514.2 525.3C557 525.7 600 515.3 642.8 506.8C685.7 498.3 728.3 491.7 771.2 491.8C814 492 857 499 878.5 502.5L900 506L900 601L878.5 601C857 601 814 601 771.2 601C728.3 601 685.7 601 642.8 601C600 601 557 601 514.2 601C471.3 601 428.7 601 385.8 601C343 601 300 601 257.2 601C214.3 601 171.7 601 128.8 601C86 601 43 601 21.5 601L0 601Z" fill="#d53867"></path><path d="M0 548L21.5 549.5C43 551 86 554 128.8 556.7C171.7 559.3 214.3 561.7 257.2 559C300 556.3 343 548.7 385.8 550.2C428.7 551.7 471.3 562.3 514.2 560.3C557 558.3 600 543.7 642.8 538.3C685.7 533 728.3 537 771.2 540.8C814 544.7 857 548.3 878.5 550.2L900 552L900 601L878.5 601C857 601 814 601 771.2 601C728.3 601 685.7 601 642.8 601C600 601 557 601 514.2 601C471.3 601 428.7 601 385.8 601C343 601 300 601 257.2 601C214.3 601 171.7 601 128.8 601C86 601 43 601 21.5 601L0 601Z" fill="#c62368"></path></svg>