<svg id="visual" viewBox="0 0 900 900" width="900" height="900" xmlns="http://www.w3.org/2000/svg" xmlns:xlink="http://www.w3.org/1999/xlink" version="1.1"><path d="M0 208L82 181L164 73L245 172L327 235L409 127L491 190L573 127L655 82L736 190L818 163L900 217L900 0L818 0L736 0L655 0L573 0L491 0L409 0L327 0L245 0L164 0L82 0L0 0Z" fill="#00cc8e"></path><path d="M0 397L82 307L164 226L245 298L327 469L409 361L491 451L573 415L655 361L736 442L818 370L900 388L900 215L818 161L736 188L655 80L573 125L491 188L409 125L327 233L245 170L164 71L82 179L0 206Z" fill="#00b98a"></path><path d="M0 667L82 703L164 604L245 676L327 676L409 694L491 685L573 613L655 613L736 694L818 721L900 649L900 386L818 368L736 440L655 359L573 413L491 449L409 359L327 467L245 296L164 224L82 305L0 395Z" fill="#00a784"></path><path d="M0 775L82 766L164 730L245 757L327 829L409 757L491 793L573 739L655 739L736 829L818 829L900 793L900 647L818 719L736 692L655 611L573 611L491 683L409 692L327 674L245 674L164 602L82 701L0 665Z" fill="#00957c"></path><path d="M0 901L82 901L164 901L245 901L327 901L409 901L491 901L573 901L655 901L736 901L818 901L900 901L900 791L818 827L736 827L655 737L573 737L491 791L409 755L327 827L245 755L164 728L82 764L0 773Z" fill="#038373"></path></svg>