<svg id="visual" viewBox="0 0 1280 1980" width="1280" height="1980" xmlns="http://www.w3.org/2000/svg" xmlns:xlink="http://www.w3.org/1999/xlink" version="1.1"><path d="M0 179L19.3 172.5C38.7 166 77.3 153 116.2 149.7C155 146.3 194 152.7 232.8 155.8C271.7 159 310.3 159 349 155.8C387.7 152.7 426.3 146.3 465.2 149.7C504 153 543 166 581.8 169.2C620.7 172.3 659.3 165.7 698.2 175.7C737 185.7 776 212.3 814.8 222.3C853.7 232.3 892.3 225.7 931 205.8C969.7 186 1008.3 153 1047.2 172.8C1086 192.7 1125 265.3 1163.8 271.8C1202.7 278.3 1241.3 218.7 1260.7 188.8L1280 159L1280 0L1260.7 0C1241.3 0 1202.7 0 1163.8 0C1125 0 1086 0 1047.2 0C1008.3 0 969.7 0 931 0C892.3 0 853.7 0 814.8 0C776 0 737 0 698.2 0C659.3 0 620.7 0 581.8 0C543 0 504 0 465.2 0C426.3 0 387.7 0 349 0C310.3 0 271.7 0 232.8 0C194 0 155 0 116.2 0C77.3 0 38.7 0 19.3 0L0 0Z" fill="#74cbfd"></path><path d="M0 595L19.3 611.5C38.7 628 77.3 661 116.2 677.5C155 694 194 694 232.8 651.2C271.7 608.3 310.3 522.7 349 519.3C387.7 516 426.3 595 465.2 585C504 575 543 476 581.8 456.2C620.7 436.3 659.3 495.7 698.2 548.5C737 601.3 776 647.7 814.8 661C853.7 674.3 892.3 654.7 931 628.3C969.7 602 1008.3 569 1047.2 545.8C1086 522.7 1125 509.3 1163.8 515.8C1202.7 522.3 1241.3 548.7 1260.7 561.8L1280 575L1280 157L1260.7 186.8C1241.3 216.7 1202.7 276.3 1163.8 269.8C1125 263.3 1086 190.7 1047.2 170.8C1008.3 151 969.7 184 931 203.8C892.3 223.7 853.7 230.3 814.8 220.3C776 210.3 737 183.7 698.2 173.7C659.3 163.7 620.7 170.3 581.8 167.2C543 164 504 151 465.2 147.7C426.3 144.3 387.7 150.7 349 153.8C310.3 157 271.7 157 232.8 153.8C194 150.7 155 144.3 116.2 147.7C77.3 151 38.7 164 19.3 170.5L0 177Z" fill="#4fbffe"></path><path d="M0 951L19.3 977.5C38.7 1004 77.3 1057 116.2 1113.2C155 1169.3 194 1228.7 232.8 1202.2C271.7 1175.7 310.3 1063.3 349 1099.7C387.7 1136 426.3 1321 465.2 1274.8C504 1228.7 543 951.3 581.8 921.7C620.7 892 659.3 1110 698.2 1195.8C737 1281.7 776 1235.3 814.8 1205.5C853.7 1175.7 892.3 1162.3 931 1132.7C969.7 1103 1008.3 1057 1047.2 1004.3C1086 951.7 1125 892.3 1163.8 908.8C1202.7 925.3 1241.3 1017.7 1260.7 1063.8L1280 1110L1280 573L1260.7 559.8C1241.3 546.7 1202.7 520.3 1163.8 513.8C1125 507.3 1086 520.7 1047.2 543.8C1008.3 567 969.7 600 931 626.3C892.3 652.7 853.7 672.3 814.8 659C776 645.7 737 599.3 698.2 546.5C659.3 493.7 620.7 434.3 581.8 454.2C543 474 504 573 465.2 583C426.3 593 387.7 514 349 517.3C310.3 520.7 271.7 606.3 232.8 649.2C194 692 155 692 116.2 675.5C77.3 659 38.7 626 19.3 609.5L0 593Z" fill="#00b2ff"></path><path d="M0 1704L19.3 1720.5C38.7 1737 77.3 1770 116.2 1793C155 1816 194 1829 232.8 1792.7C271.7 1756.3 310.3 1670.7 349 1667.5C387.7 1664.3 426.3 1743.7 465.2 1750.3C504 1757 543 1691 581.8 1658C620.7 1625 659.3 1625 698.2 1618.3C737 1611.7 776 1598.3 814.8 1604.8C853.7 1611.3 892.3 1637.7 931 1637.7C969.7 1637.7 1008.3 1611.3 1047.2 1624.5C1086 1637.7 1125 1690.3 1163.8 1687C1202.7 1683.7 1241.3 1624.3 1260.7 1594.7L1280 1565L1280 1108L1260.7 1061.8C1241.3 1015.7 1202.7 923.3 1163.8 906.8C1125 890.3 1086 949.7 1047.2 1002.3C1008.3 1055 969.7 1101 931 1130.7C892.3 1160.3 853.7 1173.7 814.8 1203.5C776 1233.3 737 1279.7 698.2 1193.8C659.3 1108 620.7 890 581.8 919.7C543 949.3 504 1226.7 465.2 1272.8C426.3 1319 387.7 1134 349 1097.7C310.3 1061.3 271.7 1173.7 232.8 1200.2C194 1226.7 155 1167.3 116.2 1111.2C77.3 1055 38.7 1002 19.3 975.5L0 949Z" fill="#009adc"></path><path d="M0 1981L19.3 1981C38.7 1981 77.3 1981 116.2 1981C155 1981 194 1981 232.8 1981C271.7 1981 310.3 1981 349 1981C387.7 1981 426.3 1981 465.2 1981C504 1981 543 1981 581.8 1981C620.7 1981 659.3 1981 698.2 1981C737 1981 776 1981 814.8 1981C853.7 1981 892.3 1981 931 1981C969.7 1981 1008.3 1981 1047.2 1981C1086 1981 1125 1981 1163.8 1981C1202.7 1981 1241.3 1981 1260.7 1981L1280 1981L1280 1563L1260.7 1592.7C1241.3 1622.3 1202.7 1681.7 1163.8 1685C1125 1688.3 1086 1635.7 1047.2 1622.5C1008.3 1609.3 969.7 1635.7 931 1635.7C892.3 1635.7 853.7 1609.3 814.8 1602.8C776 1596.3 737 1609.7 698.2 1616.3C659.3 1623 620.7 1623 581.8 1656C543 1689 504 1755 465.2 1748.3C426.3 1741.7 387.7 1662.3 349 1665.5C310.3 1668.7 271.7 1754.3 232.8 1790.7C194 1827 155 1814 116.2 1791C77.3 1768 38.7 1735 19.3 1718.5L0 1702Z" fill="#0083ba"></path></svg>