<?xml version="1.0" standalone="no"?><svg xmlns="http://www.w3.org/2000/svg" viewBox="0 0 1440 320"><path fill="#273036" fill-opacity="1" d="M0,128L30,133.3C60,139,120,149,180,133.3C240,117,300,75,360,64C420,53,480,75,540,117.3C600,160,660,224,720,250.7C780,277,840,267,900,229.3C960,192,1020,128,1080,133.3C1140,139,1200,213,1260,208C1320,203,1380,117,1410,74.7L1440,32L1440,320L1410,320C1380,320,1320,320,1260,320C1200,320,1140,320,1080,320C1020,320,960,320,900,320C840,320,780,320,720,320C660,320,600,320,540,320C480,320,420,320,360,320C300,320,240,320,180,320C120,320,60,320,30,320L0,320Z"></path></svg>