<svg id="visual" viewBox="0 0 900 900" width="900" height="900" xmlns="http://www.w3.org/2000/svg" xmlns:xlink="http://www.w3.org/1999/xlink" version="1.1"><rect x="0" y="0" width="900" height="900" fill="#FFFFFF"></rect><path d="M0 783L21.5 777.7C43 772.3 86 761.7 128.8 736.2C171.7 710.7 214.3 670.3 257.2 676.2C300 682 343 734 385.8 738.3C428.7 742.7 471.3 699.3 514.2 675.3C557 651.3 600 646.7 642.8 652.8C685.7 659 728.3 676 771.2 692.2C814 708.3 857 723.7 878.5 731.3L900 739L900 901L878.5 901C857 901 814 901 771.2 901C728.3 901 685.7 901 642.8 901C600 901 557 901 514.2 901C471.3 901 428.7 901 385.8 901C343 901 300 901 257.2 901C214.3 901 171.7 901 128.8 901C86 901 43 901 21.5 901L0 901Z" fill="#0066FF" stroke-linecap="round" stroke-linejoin="miter"></path></svg>